# xmcd
#
# Track frame offsets: 
#        150
#        21445
#        37897
#        57705
#        74375
#        91647
#        107265
#        120062
#        143187
#        176155
#        195835
#        215022
#        235435
#        250522
#        278502
#        292672
#        310535
#        324792
#
# Disc length: 4608 seconds
#
# Revision: 3
# Processed by: cddbd v1.5.2PL0 Copyright (c) Steve Scherf et al.
# Submitted via: ExactAudioCopy v1.0b1
#
DISCID=e611fe12
DTITLE=Gino Vannelli - Ultimate Collection
DYEAR=2000
DGENRE=AlternRock
TTITLE0=Appaloosa
TTITLE1=I Just Wanna Stop
TTITLE2=Living Inside Myself
TTITLE3=Hurts To Be In Love
TTITLE4=The River Must Flow
TTITLE5=Fly Into This Night
TTITLE6=Crazy Life
TTITLE7=Nightwalker
TTITLE8=Brother To Brother
TTITLE9=One Night With You
TTITLE10=Wheels Of Life
TTITLE11=Love Of My Life
TTITLE12=People Gotta Move
TTITLE13=Powerful People
TTITLE14=Mama Coco
TTITLE15=Love Me Now
TTITLE16=Black Cars
TTITLE17=Wild Horses
EXTD=YEAR: 2000
EXTT0=
EXTT1=
EXTT2=
EXTT3=
EXTT4=
EXTT5=
EXTT6=
EXTT7=
EXTT8=
EXTT9=
EXTT10=
EXTT11=
EXTT12=
EXTT13=
EXTT14=
EXTT15=
EXTT16=
EXTT17=
PLAYORDER=
